<svg width="250" height="250" viewBox="0 0 250 250" fill="none" xmlns="http://www.w3.org/2000/svg">
<g clip-path="url(#clip0_501_2)">
<rect width="250" height="250" rx="27" fill="white"/>
<path d="M18 58.125V44.75V28C18 22.4772 22.4772 18 28 18H44.75H58.125" stroke="#FFA500" stroke-width="8" stroke-linecap="round"/>
<path d="M192 18L205.375 18L222.125 18C227.648 18 232.125 22.4772 232.125 28L232.125 44.75L232.125 58.125" stroke="#FFA500" stroke-width="8" stroke-linecap="round"/>
<path d="M232.125 192L232.125 205.375L232.125 222.125C232.125 227.648 227.648 232.125 222.125 232.125L205.375 232.125L192 232.125" stroke="#FFA500" stroke-width="8" stroke-linecap="round"/>
<path d="M58.125 232.125L44.75 232.125L28 232.125C22.4772 232.125 18 227.648 18 222.125L18 205.375L18 192" stroke="#FFA500" stroke-width="8" stroke-linecap="round"/>
<path d="M89.625 89.625H101.25V101.25H89.625V89.625Z" fill="#333333"/>
<path d="M112.875 78V112.875H78V78H112.875ZM107.062 83.8125H83.8125V107.062H107.062V83.8125Z" fill="#333333"/>
<path d="M101.25 147.75H89.625V159.375H101.25V147.75Z" fill="#333333"/>
<path d="M112.875 136.125V171H78V136.125H112.875ZM83.8125 141.938V165.188H107.062V141.938H83.8125Z" fill="#333333"/>
<path d="M147.75 89.625H159.375V101.25H147.75V89.625Z" fill="#333333"/>
<path d="M136.125 78V112.875H171V78H136.125ZM165.188 83.8125V107.062H141.938V83.8125H165.188Z" fill="#333333"/>
<path d="M124.5 83.8125V78H130.312V89.625H124.5V101.25H118.688V83.8125H124.5Z" fill="#333333"/>
<path d="M124.5 112.875V101.25H130.312V112.875H124.5Z" fill="#333333"/>
<path d="M112.875 124.5V118.688H118.688V112.875H124.5V124.5H130.312V118.688H159.375V124.5H136.125V130.312H118.688V124.5H112.875Z" fill="#333333"/>
<path d="M112.875 124.5V130.312H89.625V124.5H83.8125V130.312H78V118.688H95.4375V124.5H112.875Z" fill="#333333"/>
<path d="M171 130.312H165.188V118.688H171V130.312Z" fill="#333333"/>
<path d="M165.188 130.312H159.375V141.938H171V136.125H165.188V130.312Z" fill="#333333"/>
<path d="M141.938 130.312H153.562V136.125H147.75V141.938H141.938V130.312Z" fill="#333333"/>
<path d="M153.562 147.75V141.938H147.75V147.75H141.938V153.562H130.312V159.375H147.75V147.75H153.562Z" fill="#333333"/>
<path d="M153.562 147.75H171V153.562H159.375V159.375H153.562V147.75Z" fill="#333333"/>
<path d="M130.312 141.938V147.75H136.125V136.125H118.688V141.938H130.312Z" fill="#333333"/>
<path d="M118.688 147.75H124.5V165.188H147.75V171H118.688V147.75Z" fill="#333333"/>
<path d="M171 159.375V171H153.562V165.188H165.188V159.375H171Z" fill="#333333"/>
<path d="M53.5625 195.598L50.791 200.895V204H49.8066V200.918L47.1055 195.598H48.2246L50.1055 199.395C50.1289 199.441 50.1973 199.613 50.3105 199.91H50.3281C50.3672 199.777 50.4414 199.605 50.5508 199.395L52.5195 195.598H53.5625ZM56.0586 204.141C55.1719 204.141 54.4629 203.861 53.9316 203.303C53.4043 202.74 53.1406 201.996 53.1406 201.07C53.1406 200.062 53.416 199.275 53.9668 198.709C54.5176 198.143 55.2617 197.859 56.1992 197.859C57.0938 197.859 57.791 198.135 58.291 198.686C58.7949 199.236 59.0469 200 59.0469 200.977C59.0469 201.934 58.7754 202.701 58.2324 203.279C57.6934 203.854 56.9688 204.141 56.0586 204.141ZM56.1289 198.668C55.5117 198.668 55.0234 198.879 54.6641 199.301C54.3047 199.719 54.125 200.297 54.125 201.035C54.125 201.746 54.3066 202.307 54.6699 202.717C55.0332 203.127 55.5195 203.332 56.1289 203.332C56.75 203.332 57.2266 203.131 57.5586 202.729C57.8945 202.326 58.0625 201.754 58.0625 201.012C58.0625 200.262 57.8945 199.684 57.5586 199.277C57.2266 198.871 56.75 198.668 56.1289 198.668ZM65.4336 204H64.4727V203.051H64.4492C64.0508 203.777 63.4336 204.141 62.5977 204.141C61.168 204.141 60.4531 203.289 60.4531 201.586V198H61.4082V201.434C61.4082 202.699 61.8926 203.332 62.8613 203.332C63.3301 203.332 63.7148 203.16 64.0156 202.816C64.3203 202.469 64.4727 202.016 64.4727 201.457V198H65.4336V204ZM70.5078 198.973C70.3398 198.844 70.0977 198.779 69.7812 198.779C69.3711 198.779 69.0273 198.973 68.75 199.359C68.4766 199.746 68.3398 200.273 68.3398 200.941V204H67.3789V198H68.3398V199.236H68.3633C68.5 198.814 68.709 198.486 68.9902 198.252C69.2715 198.014 69.5859 197.895 69.9336 197.895C70.1836 197.895 70.375 197.922 70.5078 197.977V198.973ZM78.3594 204.141C77.1719 204.141 76.2168 203.748 75.4941 202.963C74.7793 202.178 74.4219 201.156 74.4219 199.898C74.4219 198.543 74.7871 197.465 75.5176 196.664C76.252 195.859 77.2461 195.457 78.5 195.457C79.6562 195.457 80.5898 195.848 81.3008 196.629C82.0117 197.41 82.3672 198.432 82.3672 199.693C82.3672 201.064 82.0039 202.148 81.2773 202.945C81.1055 203.137 80.9219 203.301 80.7266 203.438L83.0879 205.131H81.3008L79.7188 203.947C79.3047 204.076 78.8516 204.141 78.3594 204.141ZM78.4297 196.348C77.5469 196.348 76.8301 196.666 76.2793 197.303C75.7285 197.939 75.4531 198.775 75.4531 199.811C75.4531 200.842 75.7207 201.676 76.2559 202.312C76.7949 202.941 77.4961 203.256 78.3594 203.256C79.2812 203.256 80.0078 202.955 80.5391 202.354C81.0703 201.752 81.3359 200.91 81.3359 199.828C81.3359 198.715 81.0781 197.857 80.5625 197.256C80.0469 196.65 79.3359 196.348 78.4297 196.348ZM90.043 204H88.8711L87.4648 201.645C87.3359 201.426 87.2109 201.24 87.0898 201.088C86.9688 200.932 86.8438 200.805 86.7148 200.707C86.5898 200.609 86.4531 200.539 86.3047 200.496C86.1602 200.449 85.9961 200.426 85.8125 200.426H85.0039V204H84.0195V195.598H86.5273C86.8945 195.598 87.2324 195.645 87.541 195.738C87.8535 195.828 88.123 195.967 88.3496 196.154C88.5801 196.342 88.7598 196.576 88.8887 196.857C89.0176 197.135 89.082 197.461 89.082 197.836C89.082 198.129 89.0371 198.398 88.9473 198.645C88.8613 198.887 88.7363 199.104 88.5723 199.295C88.4121 199.486 88.2168 199.65 87.9863 199.787C87.7598 199.92 87.5039 200.023 87.2188 200.098V200.121C87.3594 200.184 87.4805 200.256 87.582 200.338C87.6875 200.416 87.7871 200.51 87.8809 200.619C87.9746 200.729 88.0664 200.854 88.1562 200.994C88.25 201.131 88.3535 201.291 88.4668 201.475L90.043 204ZM85.0039 196.488V199.535H86.3398C86.5859 199.535 86.8125 199.498 87.0195 199.424C87.2305 199.35 87.4121 199.244 87.5645 199.107C87.7168 198.967 87.8359 198.797 87.9219 198.598C88.0078 198.395 88.0508 198.168 88.0508 197.918C88.0508 197.469 87.9043 197.119 87.6113 196.869C87.3223 196.615 86.9023 196.488 86.3516 196.488H85.0039ZM94.1445 201.035H90.9453V200.279H94.1445V201.035ZM99.9688 203.725C99.5078 204.002 98.9609 204.141 98.3281 204.141C97.4727 204.141 96.7812 203.863 96.2539 203.309C95.7305 202.75 95.4688 202.027 95.4688 201.141C95.4688 200.152 95.752 199.359 96.3184 198.762C96.8848 198.16 97.6406 197.859 98.5859 197.859C99.1133 197.859 99.5781 197.957 99.9805 198.152V199.137C99.5352 198.824 99.0586 198.668 98.5508 198.668C97.9375 198.668 97.4336 198.889 97.0391 199.33C96.6484 199.768 96.4531 200.344 96.4531 201.059C96.4531 201.762 96.6367 202.316 97.0039 202.723C97.375 203.129 97.8711 203.332 98.4922 203.332C99.0156 203.332 99.5078 203.158 99.9688 202.811V203.725ZM103.93 204.141C103.043 204.141 102.334 203.861 101.803 203.303C101.275 202.74 101.012 201.996 101.012 201.07C101.012 200.062 101.287 199.275 101.838 198.709C102.389 198.143 103.133 197.859 104.07 197.859C104.965 197.859 105.662 198.135 106.162 198.686C106.666 199.236 106.918 200 106.918 200.977C106.918 201.934 106.646 202.701 106.104 203.279C105.564 203.854 104.84 204.141 103.93 204.141ZM104 198.668C103.383 198.668 102.895 198.879 102.535 199.301C102.176 199.719 101.996 200.297 101.996 201.035C101.996 201.746 102.178 202.307 102.541 202.717C102.904 203.127 103.391 203.332 104 203.332C104.621 203.332 105.098 203.131 105.43 202.729C105.766 202.326 105.934 201.754 105.934 201.012C105.934 200.262 105.766 199.684 105.43 199.277C105.098 198.871 104.621 198.668 104 198.668ZM113.574 204H112.613V202.98H112.59C112.145 203.754 111.457 204.141 110.527 204.141C109.773 204.141 109.17 203.873 108.717 203.338C108.268 202.799 108.043 202.066 108.043 201.141C108.043 200.148 108.293 199.354 108.793 198.756C109.293 198.158 109.959 197.859 110.791 197.859C111.615 197.859 112.215 198.184 112.59 198.832H112.613V195.117H113.574V204ZM112.613 201.287V200.402C112.613 199.918 112.453 199.508 112.133 199.172C111.812 198.836 111.406 198.668 110.914 198.668C110.328 198.668 109.867 198.883 109.531 199.312C109.195 199.742 109.027 200.336 109.027 201.094C109.027 201.785 109.188 202.332 109.508 202.734C109.832 203.133 110.266 203.332 110.809 203.332C111.344 203.332 111.777 203.139 112.109 202.752C112.445 202.365 112.613 201.877 112.613 201.287ZM120.342 201.24H116.105C116.121 201.908 116.301 202.424 116.645 202.787C116.988 203.15 117.461 203.332 118.062 203.332C118.738 203.332 119.359 203.109 119.926 202.664V203.566C119.398 203.949 118.701 204.141 117.834 204.141C116.986 204.141 116.32 203.869 115.836 203.326C115.352 202.779 115.109 202.012 115.109 201.023C115.109 200.09 115.373 199.33 115.9 198.744C116.432 198.154 117.09 197.859 117.875 197.859C118.66 197.859 119.268 198.113 119.697 198.621C120.127 199.129 120.342 199.834 120.342 200.736V201.24ZM119.357 200.426C119.354 199.871 119.219 199.439 118.953 199.131C118.691 198.822 118.326 198.668 117.857 198.668C117.404 198.668 117.02 198.83 116.703 199.154C116.387 199.479 116.191 199.902 116.117 200.426H119.357ZM132.652 198L130.854 204H129.857L128.621 199.705C128.574 199.541 128.543 199.355 128.527 199.148H128.504C128.492 199.289 128.451 199.471 128.381 199.693L127.039 204H126.078L124.262 198H125.27L126.512 202.512C126.551 202.648 126.578 202.828 126.594 203.051H126.641C126.652 202.879 126.688 202.695 126.746 202.5L128.129 198H129.008L130.25 202.523C130.289 202.668 130.318 202.848 130.338 203.062H130.385C130.393 202.91 130.426 202.73 130.484 202.523L131.703 198H132.652ZM134.258 196.477C134.086 196.477 133.939 196.418 133.818 196.301C133.697 196.184 133.637 196.035 133.637 195.855C133.637 195.676 133.697 195.527 133.818 195.41C133.939 195.289 134.086 195.229 134.258 195.229C134.434 195.229 134.582 195.289 134.703 195.41C134.828 195.527 134.891 195.676 134.891 195.855C134.891 196.027 134.828 196.174 134.703 196.295C134.582 196.416 134.434 196.477 134.258 196.477ZM134.727 204H133.766V198H134.727V204ZM137.633 204H136.672V195.117H137.633V204ZM140.539 204H139.578V195.117H140.539V204ZM145.414 203.783V202.752C145.938 203.139 146.514 203.332 147.143 203.332C147.986 203.332 148.408 203.051 148.408 202.488C148.408 202.328 148.371 202.193 148.297 202.084C148.227 201.971 148.129 201.871 148.004 201.785C147.883 201.699 147.738 201.623 147.57 201.557C147.406 201.486 147.229 201.414 147.037 201.34C146.771 201.234 146.537 201.129 146.334 201.023C146.135 200.914 145.967 200.793 145.83 200.66C145.697 200.523 145.596 200.369 145.525 200.197C145.459 200.025 145.426 199.824 145.426 199.594C145.426 199.312 145.49 199.064 145.619 198.85C145.748 198.631 145.92 198.449 146.135 198.305C146.35 198.156 146.594 198.045 146.867 197.971C147.145 197.896 147.43 197.859 147.723 197.859C148.242 197.859 148.707 197.949 149.117 198.129V199.102C148.676 198.812 148.168 198.668 147.594 198.668C147.414 198.668 147.252 198.689 147.107 198.732C146.963 198.771 146.838 198.828 146.732 198.902C146.631 198.977 146.551 199.066 146.492 199.172C146.438 199.273 146.41 199.387 146.41 199.512C146.41 199.668 146.438 199.799 146.492 199.904C146.551 200.01 146.635 200.104 146.744 200.186C146.854 200.268 146.986 200.342 147.143 200.408C147.299 200.475 147.477 200.547 147.676 200.625C147.941 200.727 148.18 200.832 148.391 200.941C148.602 201.047 148.781 201.168 148.93 201.305C149.078 201.438 149.191 201.592 149.27 201.768C149.352 201.943 149.393 202.152 149.393 202.395C149.393 202.691 149.326 202.949 149.193 203.168C149.064 203.387 148.891 203.568 148.672 203.713C148.453 203.857 148.201 203.965 147.916 204.035C147.631 204.105 147.332 204.141 147.02 204.141C146.402 204.141 145.867 204.021 145.414 203.783ZM155.855 204H154.895V200.543C154.895 199.293 154.43 198.668 153.5 198.668C153.031 198.668 152.637 198.85 152.316 199.213C151.996 199.572 151.836 200.035 151.836 200.602V204H150.875V195.117H151.836V198.996H151.859C152.32 198.238 152.977 197.859 153.828 197.859C155.18 197.859 155.855 198.674 155.855 200.303V204ZM160.18 204.141C159.293 204.141 158.584 203.861 158.053 203.303C157.525 202.74 157.262 201.996 157.262 201.07C157.262 200.062 157.537 199.275 158.088 198.709C158.639 198.143 159.383 197.859 160.32 197.859C161.215 197.859 161.912 198.135 162.412 198.686C162.916 199.236 163.168 200 163.168 200.977C163.168 201.934 162.896 202.701 162.354 203.279C161.814 203.854 161.09 204.141 160.18 204.141ZM160.25 198.668C159.633 198.668 159.145 198.879 158.785 199.301C158.426 199.719 158.246 200.297 158.246 201.035C158.246 201.746 158.428 202.307 158.791 202.717C159.154 203.127 159.641 203.332 160.25 203.332C160.871 203.332 161.348 203.131 161.68 202.729C162.016 202.326 162.184 201.754 162.184 201.012C162.184 200.262 162.016 199.684 161.68 199.277C161.348 198.871 160.871 198.668 160.25 198.668ZM172.262 198L170.463 204H169.467L168.23 199.705C168.184 199.541 168.152 199.355 168.137 199.148H168.113C168.102 199.289 168.061 199.471 167.99 199.693L166.648 204H165.688L163.871 198H164.879L166.121 202.512C166.16 202.648 166.188 202.828 166.203 203.051H166.25C166.262 202.879 166.297 202.695 166.355 202.5L167.738 198H168.617L169.859 202.523C169.898 202.668 169.928 202.848 169.947 203.062H169.994C170.002 202.91 170.035 202.73 170.094 202.523L171.312 198H172.262ZM181.648 204H180.688V200.543C180.688 199.293 180.223 198.668 179.293 198.668C178.824 198.668 178.43 198.85 178.109 199.213C177.789 199.572 177.629 200.035 177.629 200.602V204H176.668V195.117H177.629V198.996H177.652C178.113 198.238 178.77 197.859 179.621 197.859C180.973 197.859 181.648 198.674 181.648 200.303V204ZM188.287 201.24H184.051C184.066 201.908 184.246 202.424 184.59 202.787C184.934 203.15 185.406 203.332 186.008 203.332C186.684 203.332 187.305 203.109 187.871 202.664V203.566C187.344 203.949 186.646 204.141 185.779 204.141C184.932 204.141 184.266 203.869 183.781 203.326C183.297 202.779 183.055 202.012 183.055 201.023C183.055 200.09 183.318 199.33 183.846 198.744C184.377 198.154 185.035 197.859 185.82 197.859C186.605 197.859 187.213 198.113 187.643 198.621C188.072 199.129 188.287 199.834 188.287 200.736V201.24ZM187.303 200.426C187.299 199.871 187.164 199.439 186.898 199.131C186.637 198.822 186.271 198.668 185.803 198.668C185.35 198.668 184.965 198.83 184.648 199.154C184.332 199.479 184.137 199.902 184.062 200.426H187.303ZM192.875 198.973C192.707 198.844 192.465 198.779 192.148 198.779C191.738 198.779 191.395 198.973 191.117 199.359C190.844 199.746 190.707 200.273 190.707 200.941V204H189.746V198H190.707V199.236H190.73C190.867 198.814 191.076 198.486 191.357 198.252C191.639 198.014 191.953 197.895 192.301 197.895C192.551 197.895 192.742 197.922 192.875 197.977V198.973ZM198.74 201.24H194.504C194.52 201.908 194.699 202.424 195.043 202.787C195.387 203.15 195.859 203.332 196.461 203.332C197.137 203.332 197.758 203.109 198.324 202.664V203.566C197.797 203.949 197.1 204.141 196.232 204.141C195.385 204.141 194.719 203.869 194.234 203.326C193.75 202.779 193.508 202.012 193.508 201.023C193.508 200.09 193.771 199.33 194.299 198.744C194.83 198.154 195.488 197.859 196.273 197.859C197.059 197.859 197.666 198.113 198.096 198.621C198.525 199.129 198.74 199.834 198.74 200.736V201.24ZM197.756 200.426C197.752 199.871 197.617 199.439 197.352 199.131C197.09 198.822 196.725 198.668 196.256 198.668C195.803 198.668 195.418 198.83 195.102 199.154C194.785 199.479 194.59 199.902 194.516 200.426H197.756ZM200.533 204.129C200.354 204.129 200.199 204.064 200.07 203.936C199.945 203.807 199.883 203.652 199.883 203.473C199.883 203.293 199.945 203.139 200.07 203.01C200.199 202.877 200.354 202.811 200.533 202.811C200.717 202.811 200.873 202.877 201.002 203.01C201.131 203.139 201.195 203.293 201.195 203.473C201.195 203.652 201.131 203.807 201.002 203.936C200.873 204.064 200.717 204.129 200.533 204.129Z" fill="#333333"/>
</g>
<defs>
<clipPath id="clip0_501_2">
<rect width="250" height="250" fill="white"/>
</clipPath>
</defs>
</svg>
